<svg width="40" height="41" viewBox="0 0 40 41" fill="none" xmlns="http://www.w3.org/2000/svg">
<g id="02">
<g id="Group">
<g id="Clip path group">
<g id="Group_2">
<g id="Group_3">
<g id="Group_4">
<path id="Vector" d="M39.7508 42.032H-1.05273C-1.05273 42.032 -0.0848889 32.2129 4.34242 29.0314C6.98808 27.1325 10.5346 25.9302 12.9559 25.2739C14.5868 24.8284 15.7054 24.6309 15.7054 24.6309L24.7274 25.0126C24.7274 25.0126 25.7824 25.2069 27.2793 25.6489C29.1581 26.2049 31.7267 27.156 33.8031 28.6161C37.5372 31.245 39.7542 42.032 39.7542 42.032H39.7508Z" fill="#4D7D80"/>
<g id="Group_5">
<g id="Group_6">
<path id="Vector_2" d="M24.8208 22.7386L24.7237 25.0159C24.449 25.2202 24.1711 25.3943 23.8931 25.545C19.8409 27.752 15.6982 24.6308 15.6982 24.6308L16.0331 16.7373L23.7726 22.0219L24.8208 22.7386Z" fill="#E69680"/>
<path id="Vector_3" d="M24.8208 22.7386L24.7237 25.0159C24.4491 25.2202 24.1711 25.3944 23.8932 25.5451C20.5844 24.0715 18.2837 20.4346 18.2837 20.4346L23.7726 22.022L24.8208 22.7386Z" fill="#302922"/>
</g>
<path id="Vector_4" d="M28.0933 12.7685C28.0933 12.7685 29.4496 11.295 30.116 12.8556C30.7825 14.4129 30.0892 17.4838 28.1435 16.8944L28.0933 12.7719V12.7685Z" fill="#E06C5C"/>
<path id="Vector_5" d="M29.7505 6.34272C29.7505 6.34272 31.2274 6.93884 30.5107 8.62001C29.794 10.3012 29.8443 10.6495 30.0318 11.7044C30.2193 12.756 29.3486 13.5731 29.0506 13.4592C28.7525 13.342 26.1906 5.472 29.7505 6.34607V6.34272Z" fill="#302922"/>
<path id="Vector_6" d="M29.2449 18.184C29.2449 18.184 29.0541 22.8926 24.1579 22.6716C19.2919 22.4573 16.1405 18.4955 15.9731 18.3113L15.9664 18.3079L15.9563 17.3166L15.8961 12.1693L15.8626 9.41981C15.8626 9.41981 15.4506 4.45333 20.1861 3.75005C23.6455 3.23766 26.8371 3.94429 28.3876 5.80295C28.4379 5.86323 28.4847 5.92351 28.5316 5.98714C29.0172 6.63684 29.3086 7.42049 29.3588 8.32806L29.3019 13.2644L29.2885 14.4734L29.2449 18.1874V18.184Z" fill="#E69680"/>
<path id="Vector_7" d="M25.5511 17.0516C25.3368 17.0617 25.0957 17.0449 24.8244 16.9847C23.4346 16.6832 22.5069 15.4408 22.4701 15.3872C22.4098 15.3068 22.4266 15.193 22.5103 15.1327C22.5907 15.0724 22.7045 15.0892 22.7648 15.1729C22.7748 15.1863 23.6489 16.3584 24.9048 16.633C26.1472 16.9043 26.6831 16.1675 26.6898 16.1608C26.7467 16.0804 26.8606 16.0603 26.9409 16.1173C27.0213 16.1742 27.0414 16.2881 26.9845 16.3684C26.961 16.3986 26.519 17.0081 25.5545 17.0516H25.5511Z" fill="#302922"/>
<path id="Vector_8" d="M25.749 18.1241C25.8428 18.0739 25.8963 18.0337 25.9064 18.027C26.0135 17.95 26.037 17.7993 25.96 17.6921C25.8829 17.5849 25.7356 17.5582 25.6251 17.6385C25.5949 17.662 24.885 18.1509 24.1047 17.749C23.9874 17.6888 23.8434 17.7357 23.7832 17.8529C23.7229 17.9701 23.7698 18.1141 23.887 18.1744C24.6974 18.5896 25.4375 18.2916 25.7523 18.1208L25.749 18.1241Z" fill="#E06C5C"/>
<path id="Vector_9" d="M25.9598 14.8386C25.5211 14.7616 25.0388 14.5874 24.7709 14.4803C24.6705 14.4401 24.6236 14.3296 24.6638 14.2291C24.704 14.1286 24.8178 14.0818 24.9149 14.1219C25.645 14.4099 26.4387 14.574 26.5526 14.4602C26.5526 14.4602 26.5526 14.4434 26.5459 14.4133C26.1775 12.7857 25.3436 12.5881 25.3336 12.5881C25.2431 12.568 25.1762 12.4843 25.1795 12.3939L25.2264 10.8869C25.2264 10.7797 25.3202 10.696 25.4273 10.6993C25.5311 10.6993 25.6182 10.7931 25.6149 10.9003L25.5713 12.2666C25.8895 12.4039 26.5894 12.8627 26.9243 14.3329C26.9779 14.5707 26.8707 14.7013 26.8037 14.7616C26.6329 14.9056 26.3114 14.9089 25.9632 14.8487L25.9598 14.8386Z" fill="#302922"/>
<path id="Vector_10" d="M20.4409 9.17557C20.6653 9.73485 21.2982 10.0128 21.8642 9.79848C22.1924 9.67457 22.5809 9.55066 22.9895 9.48033C23.5655 9.37986 23.9439 8.82059 23.8133 8.25127C23.8133 8.25127 21.5427 7.94651 20.4443 9.17557H20.4409Z" fill="#302922"/>
<path id="Vector_11" d="M29.2917 9.55086C29.0205 10.09 28.3674 10.3144 27.8216 10.0532C27.5034 9.89915 27.1283 9.74845 26.7298 9.64128C26.1638 9.49393 25.8356 8.90451 26.0131 8.34524C26.0131 8.34524 28.3005 8.23138 29.2917 9.55086Z" fill="#302922"/>
<g id="Group_7">
<path id="Vector_12" d="M22.1351 11.6767C22.115 12.1489 21.8839 12.5207 21.6227 12.5073C21.3581 12.4972 21.1605 12.1054 21.1806 11.6366C21.2007 11.1644 21.4318 10.7926 21.693 10.806C21.9576 10.8161 22.1551 11.2079 22.1351 11.6767Z" fill="#302922"/>
<path id="Vector_13" d="M27.0916 11.874C27.0715 12.3462 26.8404 12.7179 26.5792 12.7045C26.3146 12.6945 26.1171 12.3027 26.1371 11.8338C26.1572 11.3616 26.3883 10.9899 26.6495 11.0033C26.9141 11.0133 27.1117 11.4052 27.0916 11.8774V11.874Z" fill="#302922"/>
</g>
<path id="Vector_14" d="M17.5871 16.4697C17.5636 16.52 16.8838 17.9332 15.9729 18.315L15.9695 18.3083L15.9595 17.317C15.9595 17.317 16.7364 17.2165 17.5871 16.4697Z" fill="#302922"/>
<path id="Vector_15" d="M16.864 13.164C16.864 13.164 15.089 10.5552 13.6256 12.4842C12.4199 14.0716 14.3891 18.4285 16.6965 17.0622L16.8606 13.164H16.864Z" fill="#E69680"/>
<path id="Vector_16" d="M16.4721 16.2923C16.4721 16.2923 16.4855 16.2923 16.4922 16.2923C16.5994 16.2856 16.6798 16.1918 16.6731 16.0847C16.5291 13.9246 14.7508 13.1041 14.6771 13.0706C14.58 13.0271 14.4661 13.0706 14.4192 13.1677C14.3757 13.2648 14.4192 13.3787 14.5164 13.4222C14.5833 13.4524 16.1573 14.1858 16.2846 16.1081C16.2913 16.2086 16.3717 16.2856 16.4688 16.2889L16.4721 16.2923Z" fill="#302922"/>
<path id="Vector_17" d="M14.7174 15.0391C14.761 15.0391 14.8045 15.029 14.8414 15.0022C15.0155 14.8716 15.5413 14.5602 15.8695 14.6573C15.9733 14.6874 16.0805 14.6305 16.1106 14.5267C16.1408 14.4229 16.0838 14.3157 15.98 14.2855C15.404 14.1114 14.6873 14.6305 14.6069 14.6908C14.5199 14.7544 14.5031 14.875 14.5667 14.962C14.6036 15.0123 14.6572 15.0391 14.7141 15.0391H14.7174Z" fill="#302922"/>
</g>
</g>
<path id="Vector_18" d="M19.3724 7.65234C19.3724 7.65234 19.3021 8.61684 18.7863 9.87604C18.2706 11.1319 17.4769 11.1018 17.4434 11.8586C17.4099 12.6155 17.795 13.58 17.5841 13.6838C17.3731 13.7876 17.0985 13.8914 17.0985 13.8914C17.0985 13.8914 16.1373 12.3308 15.8962 12.1768C15.6551 12.0227 15.1628 11.6845 14.7575 11.7816C14.7575 11.7816 14.0342 11.7247 13.4481 12.7896C13.4481 12.7896 12.929 12.0495 13.2572 11.008C13.5854 9.96647 14.0878 10.3114 14.061 9.25984C14.0342 8.20827 14.1012 8.03412 14.1012 8.03412L19.3724 7.65569V7.65234Z" fill="#302922"/>
<path id="Vector_19" d="M19.0207 7.62861C19.0207 7.62861 14.3121 8.20128 14.1045 8.02714C13.8969 7.85634 14.4494 3.03386 16.4119 1.4833C18.3744 -0.0672648 23.1165 -0.341878 26.1372 0.656107C29.158 1.65409 29.7441 6.00103 29.7441 6.00103L19.0207 7.62861Z" fill="#9E3838"/>
<path id="Vector_20" d="M18.5652 7.65192C18.5652 7.65192 21.6027 9.16899 23.5015 9.22927C25.4004 9.2929 27.604 7.8562 29.7641 8.34515C31.9208 8.8341 32.2892 9.53402 32.9322 9.22927C33.5752 8.92452 30.3099 5.69613 27.8317 5.24402C25.3535 4.79192 17.7146 7.18641 18.5618 7.64857L18.5652 7.65192Z" fill="#FFF4E6"/>
<path id="Vector_21" d="M15.1156 22.9902C15.1156 22.9902 16.2676 23.5328 18.287 25.9206C20.3064 28.305 20.2629 31.7511 20.2629 31.7511L12.9521 25.2742C12.9521 25.2742 13.9702 23.4624 15.1189 22.9902H15.1156Z" fill="#FFF4E6"/>
<path id="Vector_22" d="M20.26 31.7509V42.0355H-1.05273C-1.05273 42.0355 -0.0848889 32.2164 4.34242 29.0349C6.98808 27.136 10.5346 25.9337 12.9559 25.2773L20.2633 31.7509H20.26Z" fill="#312A45"/>
<path id="Vector_23" d="M24.7408 24.6311L24.5298 31.3793C24.5298 31.3793 27.2223 28.5092 27.2759 25.6492C27.2759 25.6492 26.3918 23.3418 24.7944 23.3418L24.7408 24.6311Z" fill="#FFF4E6"/>
<path id="Vector_24" d="M39.7507 42.0325H25.1728C24.9886 38.6768 24.5298 31.3795 24.5298 31.3795L27.2793 25.6494C29.158 26.2053 31.7267 27.1564 33.803 28.6166C37.5371 31.2455 39.7541 42.0325 39.7541 42.0325H39.7507Z" fill="#312A45"/>
</g>
</g>
</g>
</g>
</g>
</svg>
