<svg width="63" height="59" viewBox="0 0 63 59" fill="none" xmlns="http://www.w3.org/2000/svg">
<g id="Frame 427319741">
<path id="Vector 3" d="M61.8027 27.3151V1.33543C61.8027 0.69767 61.2811 0.17827 60.6439 0.203465C51.3308 0.571666 44.4028 5.34723 39.6988 10.7323C33.7434 17.5501 32.752 27.0318 32.752 36.0844V56.3159C32.752 56.9536 33.2742 57.4735 33.9112 57.4426C45.0844 56.9019 53.3284 48.6394 57.856 42.3879C60.4746 38.7722 61.8027 31.7794 61.8027 27.3151Z" fill="#96300A"/>
<path id="Vector 2" d="M45.4267 27.3151V1.33543C45.4267 0.69767 44.9052 0.17827 44.2679 0.203465C34.9549 0.571666 28.0268 5.34723 23.3229 10.7323C17.3674 17.5501 16.376 27.0318 16.376 36.0844V56.3159C16.376 56.9536 16.8982 57.4735 17.5352 57.4426C28.7084 56.9019 36.9524 48.6394 41.48 42.3879C44.0986 38.7722 45.4267 31.7794 45.4267 27.3151Z" fill="#FF5A3E"/>
<path id="Vector 1" d="M29.0508 27.3151V1.33543C29.0508 0.69767 28.5292 0.17827 27.8919 0.203465C18.5789 0.571666 11.6508 5.34723 6.94687 10.7323C0.991469 17.5501 0 27.0318 0 36.0844V56.3159C0 56.9536 0.522237 57.4735 1.15925 57.4426C12.3325 56.9019 20.5765 48.6394 25.104 42.3879C27.7226 38.7722 29.0508 31.7794 29.0508 27.3151Z" fill="#FC9C86"/>
</g>
</svg>
